<svg xmlns="http://www.w3.org/2000/svg" viewBox="0 0 56 48" width="56" height="48" fill="none" stroke="#D4AA5F" stroke-linecap="round" stroke-linejoin="round" stroke-width="1.15">
  <path d="M17 10 28 3l11 7M15 12h26M7 18l9-6h24l9 6M5 20h46M12 24h32" />
  <path d="M10 20v8M16 13v15M22 12v16M28 12v16M34 12v16M40 13v15M46 20v8M8 28h40M6 31h44M6 31v12M50 31v12M4 43h48" />
  <path stroke-width="1.3" d="M10 43v-8h7v8M22 43v-7a6 6 0 0 1 12 0v7M39 43v-8h7v8M18.5 43v-6h2v6M35.5 43v-6h2v6" />
  <path stroke-width="0.9" opacity="0.72" d="M18 17h4M25 17h6M34 17h4M18 24h4M25 24h6M34 24h4" />
</svg>
